<mxfile host="app.diagrams.net" modified="2024-03-23T18:18:22.443Z" agent="Mozilla/5.0 (Windows NT 10.0; Win64; x64) AppleWebKit/537.36 (KHTML, like Gecko) Chrome/123.0.0.0 Safari/537.36" etag="Q7L4gxdIJrrVeJoKTXeY" version="24.0.7" type="google">
  <diagram name="Página-1" id="OcmAsoUz9h90Adji7TMQ">
    <mxGraphModel grid="1" page="1" gridSize="10" guides="1" tooltips="1" connect="1" arrows="1" fold="1" pageScale="1" pageWidth="610" pageHeight="520" math="0" shadow="0">
      <root>
        <mxCell id="0" />
        <mxCell id="1" parent="0" />
        <mxCell id="qFMsDyISqOqKOGWYgI6V-2" value="&lt;font color=&quot;#000033&quot; style=&quot;font-size: 18px;&quot;&gt;&lt;b&gt;Geração Hídrica&lt;/b&gt;&lt;/font&gt;" style="ellipse;whiteSpace=wrap;html=1;fillColor=#F2BCBB;shadow=0;strokeColor=#000033;" vertex="1" parent="1">
          <mxGeometry x="-820" y="300" width="130" height="97" as="geometry" />
        </mxCell>
        <mxCell id="qFMsDyISqOqKOGWYgI6V-9" value="&lt;font color=&quot;#000033&quot; style=&quot;font-size: 18px;&quot;&gt;&lt;b&gt;Preço&lt;/b&gt;&lt;/font&gt;" style="ellipse;whiteSpace=wrap;html=1;fillColor=#54AAFF;shadow=0;strokeColor=#000033;" vertex="1" parent="1">
          <mxGeometry x="-1150" y="530" width="130" height="90" as="geometry" />
        </mxCell>
        <mxCell id="qFMsDyISqOqKOGWYgI6V-10" value="&lt;font color=&quot;#000033&quot; style=&quot;font-size: 18px;&quot;&gt;&lt;b style=&quot;&quot;&gt;Energia Armazenada&lt;/b&gt;&lt;/font&gt;" style="ellipse;whiteSpace=wrap;html=1;fillColor=#F2BCBB;shadow=0;strokeColor=#000033;" vertex="1" parent="1">
          <mxGeometry x="-1110" y="130" width="140" height="100" as="geometry" />
        </mxCell>
        <mxCell id="qFMsDyISqOqKOGWYgI6V-11" value="&lt;font style=&quot;font-size: 18px;&quot; color=&quot;#000033&quot;&gt;&lt;b&gt;Geração Térmica&lt;/b&gt;&lt;/font&gt;" style="ellipse;whiteSpace=wrap;html=1;fillColor=#F2BCBB;shadow=0;strokeColor=#000033;" vertex="1" parent="1">
          <mxGeometry x="-1020" y="330" width="130" height="100" as="geometry" />
        </mxCell>
        <mxCell id="qFMsDyISqOqKOGWYgI6V-12" value="" style="curved=1;endArrow=classicThin;html=1;rounded=0;entryX=0.5;entryY=0;entryDx=0;entryDy=0;strokeWidth=2;strokeColor=#000033;endFill=1;exitX=0.5;exitY=1;exitDx=0;exitDy=0;" edge="1" parent="1" source="qFMsDyISqOqKOGWYgI6V-10" target="qFMsDyISqOqKOGWYgI6V-9">
          <mxGeometry width="50" height="50" relative="1" as="geometry">
            <mxPoint x="-1150" y="313" as="sourcePoint" />
            <mxPoint x="-1002" y="466" as="targetPoint" />
            <Array as="points">
              <mxPoint x="-1108" y="428" />
            </Array>
          </mxGeometry>
        </mxCell>
        <mxCell id="qFMsDyISqOqKOGWYgI6V-13" value="" style="curved=1;endArrow=classicThin;html=1;rounded=0;entryX=1;entryY=0;entryDx=0;entryDy=0;fillColor=#000033;strokeColor=#000033;strokeWidth=2;endFill=1;exitX=0.27;exitY=0.944;exitDx=0;exitDy=0;exitPerimeter=0;" edge="1" parent="1" source="qFMsDyISqOqKOGWYgI6V-11" target="qFMsDyISqOqKOGWYgI6V-9">
          <mxGeometry width="50" height="50" relative="1" as="geometry">
            <mxPoint x="-970" y="363" as="sourcePoint" />
            <mxPoint x="-992" y="476" as="targetPoint" />
            <Array as="points">
              <mxPoint x="-1001" y="470" />
            </Array>
          </mxGeometry>
        </mxCell>
        <mxCell id="zn3NG1fq7bCxj9a39jyr-1" value="&lt;font style=&quot;font-size: 18px;&quot; color=&quot;#000033&quot;&gt;&lt;b style=&quot;&quot;&gt;Preço de Liquidação das Diferenças&lt;/b&gt;&lt;/font&gt;" style="ellipse;whiteSpace=wrap;html=1;fillColor=#F2BCBB;shadow=0;strokeColor=#000033;" vertex="1" parent="1">
          <mxGeometry x="-1280" y="140" width="140" height="100" as="geometry" />
        </mxCell>
        <mxCell id="zn3NG1fq7bCxj9a39jyr-2" value="" style="curved=1;endArrow=classicThin;html=1;rounded=0;exitX=0.5;exitY=1;exitDx=0;exitDy=0;strokeWidth=2;strokeColor=#000033;endFill=1;entryX=0;entryY=0;entryDx=0;entryDy=0;" edge="1" parent="1" source="zn3NG1fq7bCxj9a39jyr-1" target="qFMsDyISqOqKOGWYgI6V-9">
          <mxGeometry width="50" height="50" relative="1" as="geometry">
            <mxPoint x="-1077" y="333" as="sourcePoint" />
            <mxPoint x="-1010" y="603" as="targetPoint" />
            <Array as="points">
              <mxPoint x="-1210" y="413" />
            </Array>
          </mxGeometry>
        </mxCell>
        <mxCell id="zn3NG1fq7bCxj9a39jyr-7" value="" style="curved=1;endArrow=classicThin;html=1;rounded=0;strokeWidth=2;strokeColor=#000033;endFill=1;exitX=1;exitY=0.5;exitDx=0;exitDy=0;" edge="1" parent="1" source="qFMsDyISqOqKOGWYgI6V-10" target="qFMsDyISqOqKOGWYgI6V-2">
          <mxGeometry width="50" height="50" relative="1" as="geometry">
            <mxPoint x="-1060" y="163" as="sourcePoint" />
            <mxPoint x="-1094" y="632" as="targetPoint" />
            <Array as="points">
              <mxPoint x="-890" y="203" />
            </Array>
          </mxGeometry>
        </mxCell>
        <mxCell id="zn3NG1fq7bCxj9a39jyr-8" value="" style="endArrow=classicThin;html=1;rounded=0;strokeWidth=2;strokeColor=#000033;endFill=1;entryX=1;entryY=0.5;entryDx=0;entryDy=0;" edge="1" parent="1" source="qFMsDyISqOqKOGWYgI6V-2" target="qFMsDyISqOqKOGWYgI6V-11">
          <mxGeometry width="50" height="50" relative="1" as="geometry">
            <mxPoint x="-915" y="333" as="sourcePoint" />
            <mxPoint x="-830" y="313" as="targetPoint" />
          </mxGeometry>
        </mxCell>
        <mxCell id="zn3NG1fq7bCxj9a39jyr-9" value="" style="curved=1;endArrow=classicThin;html=1;rounded=0;fillColor=#000033;strokeColor=#000033;strokeWidth=2;endFill=1;exitX=0.738;exitY=0.935;exitDx=0;exitDy=0;exitPerimeter=0;entryX=0.5;entryY=0;entryDx=0;entryDy=0;" edge="1" parent="1" source="qFMsDyISqOqKOGWYgI6V-10" target="qFMsDyISqOqKOGWYgI6V-11">
          <mxGeometry width="50" height="50" relative="1" as="geometry">
            <mxPoint x="-1004" y="233" as="sourcePoint" />
            <mxPoint x="-969" y="283" as="targetPoint" />
            <Array as="points">
              <mxPoint x="-980" y="253" />
            </Array>
          </mxGeometry>
        </mxCell>
        <mxCell id="zn3NG1fq7bCxj9a39jyr-15" value="&lt;font color=&quot;#000033&quot;&gt;&lt;span style=&quot;font-size: 18px;&quot;&gt;&lt;b&gt;Nível do Reservatório&lt;/b&gt;&lt;/span&gt;&lt;/font&gt;" style="ellipse;whiteSpace=wrap;html=1;fillColor=#F2BCBB;shadow=0;strokeColor=#000033;" vertex="1" parent="1">
          <mxGeometry x="-570" y="190" width="130" height="97" as="geometry" />
        </mxCell>
        <mxCell id="zn3NG1fq7bCxj9a39jyr-16" value="&lt;font color=&quot;#000033&quot;&gt;&lt;span style=&quot;font-size: 18px;&quot;&gt;&lt;b&gt;Nível de Precipitação&lt;/b&gt;&lt;/span&gt;&lt;/font&gt;" style="ellipse;whiteSpace=wrap;html=1;fillColor=#F2BCBB;shadow=0;strokeColor=#000033;" vertex="1" parent="1">
          <mxGeometry x="-190" y="50" width="130" height="97" as="geometry" />
        </mxCell>
        <mxCell id="zn3NG1fq7bCxj9a39jyr-17" value="" style="curved=1;endArrow=classicThin;html=1;rounded=0;strokeWidth=2;strokeColor=#000033;endFill=1;entryX=0.5;entryY=0;entryDx=0;entryDy=0;exitX=0;exitY=0.5;exitDx=0;exitDy=0;" edge="1" parent="1" source="zn3NG1fq7bCxj9a39jyr-16" target="zn3NG1fq7bCxj9a39jyr-15">
          <mxGeometry width="50" height="50" relative="1" as="geometry">
            <mxPoint x="-250" y="80" as="sourcePoint" />
            <mxPoint x="-310" y="473" as="targetPoint" />
            <Array as="points">
              <mxPoint x="-430" y="80" />
            </Array>
          </mxGeometry>
        </mxCell>
        <mxCell id="zn3NG1fq7bCxj9a39jyr-18" value="&lt;font color=&quot;#000033&quot; style=&quot;font-size: 18px;&quot;&gt;&lt;b&gt;Geração Hídrica&lt;/b&gt;&lt;/font&gt;" style="ellipse;whiteSpace=wrap;html=1;fillColor=#54AAFF;shadow=0;strokeColor=#000033;" vertex="1" parent="1">
          <mxGeometry x="-200" y="350" width="130" height="97" as="geometry" />
        </mxCell>
        <mxCell id="zn3NG1fq7bCxj9a39jyr-19" value="" style="curved=1;endArrow=classicThin;html=1;rounded=0;strokeWidth=2;strokeColor=#000033;endFill=1;entryX=0;entryY=0.5;entryDx=0;entryDy=0;exitX=0.5;exitY=1;exitDx=0;exitDy=0;" edge="1" parent="1" source="zn3NG1fq7bCxj9a39jyr-15" target="zn3NG1fq7bCxj9a39jyr-18">
          <mxGeometry width="50" height="50" relative="1" as="geometry">
            <mxPoint x="-490" y="250" as="sourcePoint" />
            <mxPoint x="-430" y="372" as="targetPoint" />
            <Array as="points">
              <mxPoint x="-410" y="370" />
            </Array>
          </mxGeometry>
        </mxCell>
      </root>
    </mxGraphModel>
  </diagram>
</mxfile>
